<?xml version="1.0" encoding="utf-8" ?>
<svg baseProfile="full" height="32" version="1.1" viewBox="0 0 32 32" width="32" xmlns="http://www.w3.org/2000/svg" xmlns:ev="http://www.w3.org/2001/xml-events" xmlns:xlink="http://www.w3.org/1999/xlink"><defs /><path d="M 18.00,30.00 L 19.00,29.00 L 20.00,29.00 L 21.00,29.00 L 21.00,29.00 L 22.00,28.00 L 22.00,28.00 L 23.00,27.00 L 24.00,27.00 L 24.00,27.00 L 25.00,26.00 L 25.00,26.00 L 26.00,25.00 L 26.00,25.00 L 27.00,24.00 L 27.00,24.00 L 27.00,23.00 L 28.00,22.00 L 28.00,22.00 L 29.00,21.00 L 29.00,21.00 L 29.00,20.00 L 29.00,19.00 L 30.00,18.00 L 30.00,18.00 L 30.00,17.00 L 30.00,16.00 L 30.00,15.00 L 30.00,14.00 L 30.00,13.00 L 30.00,13.00 L 29.00,12.00 L 29.00,11.00 L 29.00,10.00 L 29.00,10.00 L 28.00,9.00 L 28.00,9.00 L 27.00,8.00 L 27.00,7.00 L 27.00,7.00 L 26.00,6.00 L 26.00,6.00 L 25.00,5.00 L 25.00,5.00 L 24.00,4.00 L 24.00,4.00 L 23.00,4.00 L 22.00,3.00 L 22.00,3.00 L 21.00,2.00 L 21.00,2.00 L 20.00,2.00 L 19.00,2.00 L 18.00,1.00 L 18.00,1.00 L 17.00,1.00 L 16.00,1.00 L 15.00,1.00 L 14.00,1.00 L 13.00,1.00 L 13.00,1.00 L 12.00,2.00 L 11.00,2.00 L 10.00,2.00 L 10.00,2.00 L 9.00,3.00 L 9.00,3.00 L 8.00,4.00 L 7.00,4.00 L 7.00,4.00 L 6.00,5.00 L 6.00,5.00 L 5.00,6.00 L 5.00,6.00 L 4.00,7.00 L 4.00,7.00 L 4.00,8.00 L 3.00,9.00 L 3.00,9.00 L 2.00,10.00 L 2.00,10.00 L 2.00,11.00 L 2.00,12.00 L 1.00,13.00 L 1.00,13.00 L 1.00,14.00 L 1.00,15.00 L 1.00,16.00 L 1.00,17.00 L 1.00,18.00 L 1.00,18.00 L 2.00,19.00 L 2.00,20.00 L 2.00,21.00 L 2.00,21.00 L 3.00,22.00 L 3.00,22.00 L 4.00,23.00 L 4.00,24.00 L 4.00,24.00 L 5.00,25.00 L 5.00,25.00 L 6.00,26.00 L 6.00,26.00 L 7.00,27.00 L 7.00,27.00 L 8.00,27.00 L 9.00,28.00 L 9.00,28.00 L 10.00,29.00 L 10.00,29.00 L 11.00,29.00 L 12.00,29.00 L 13.00,30.00 L 13.00,30.00 L 14.00,30.00 L 15.00,30.00 L 16.00,30.00 L 17.00,30.00 L 18.00,30.00 L 18.00,30.00 Z" fill="black" /><path d="M 18.00,28.00 L 17.00,28.00 L 16.00,28.00 L 15.00,28.00 L 14.00,28.00 L 13.00,28.00 L 12.00,27.00 L 12.00,27.00 L 11.00,27.00 L 10.00,27.00 L 9.00,26.00 L 9.00,26.00 L 8.00,25.00 L 8.00,25.00 L 7.00,25.00 L 6.00,24.00 L 6.00,23.00 L 6.00,23.00 L 5.00,22.00 L 5.00,22.00 L 4.00,21.00 L 4.00,20.00 L 4.00,19.00 L 4.00,19.00 L 3.00,18.00 L 3.00,17.00 L 3.00,16.00 L 3.00,15.00 L 3.00,14.00 L 3.00,13.00 L 4.00,12.00 L 4.00,12.00 L 4.00,11.00 L 4.00,10.00 L 5.00,9.00 L 5.00,9.00 L 6.00,8.00 L 6.00,8.00 L 6.00,7.00 L 7.00,6.00 L 8.00,6.00 L 8.00,6.00 L 9.00,5.00 L 9.00,5.00 L 10.00,4.00 L 11.00,4.00 L 12.00,4.00 L 12.00,4.00 L 13.00,3.00 L 14.00,3.00 L 15.00,3.00 L 16.00,3.00 L 17.00,3.00 L 18.00,3.00 L 19.00,4.00 L 19.00,4.00 L 20.00,4.00 L 21.00,4.00 L 22.00,5.00 L 22.00,5.00 L 23.00,6.00 L 23.00,6.00 L 24.00,6.00 L 25.00,7.00 L 25.00,8.00 L 25.00,8.00 L 26.00,9.00 L 26.00,9.00 L 27.00,10.00 L 27.00,11.00 L 27.00,12.00 L 27.00,12.00 L 28.00,13.00 L 28.00,14.00 L 28.00,15.00 L 28.00,16.00 L 28.00,17.00 L 28.00,18.00 L 27.00,19.00 L 27.00,19.00 L 27.00,20.00 L 27.00,21.00 L 26.00,22.00 L 26.00,22.00 L 25.00,23.00 L 25.00,23.00 L 25.00,24.00 L 24.00,25.00 L 23.00,25.00 L 23.00,25.00 L 22.00,26.00 L 22.00,26.00 L 21.00,27.00 L 20.00,27.00 L 19.00,27.00 L 19.00,27.00 L 18.00,28.00 Z" fill="black" /></svg>